<?xml version="1.0" encoding="iso-8859-1"?>
<!-- Uploaded to: SVG Repo, www.svgrepo.com, Generator: SVG Repo Mixer Tools -->
<!DOCTYPE svg PUBLIC "-//W3C//DTD SVG 1.1//EN" "http://www.w3.org/Graphics/SVG/1.1/DTD/svg11.dtd">
<svg fill="#000000" version="1.1" id="Capa_1" xmlns="http://www.w3.org/2000/svg" xmlns:xlink="http://www.w3.org/1999/xlink" 
	 width="800px" height="800px" viewBox="0 0 108.13 108.13"
	 xml:space="preserve">
<g>
	<g>
		<path d="M103.345,37.342c-3.196-1.918-6.57-2.117-10.071-1.377c-1.537,0.332-3.015,0.929-4.521,1.405
			c1.882-1.997,3.979-3.083,5.947-4.363c2.081-1.352,3.785-3.143,5.373-5.046c4.062-4.863,2.939-8.276-3.159-9.517
			c-5.017-1.016-7.378-2.284-11.094-5.558c-2.317-2.04-4.918-3.781-8.217-2.594c-3.405,1.237-5,4.005-5.523,7.443
			c-0.377,2.475-0.106,4.918,0.51,7.335c0.328,1.295,0.571,2.616,0.855,3.917c-3.076-5.01-6.276-9.577-11.409-12.386
			c-4.432-2.415-7.096-1.203-7.187,3.833c-0.081,4.812-1.444,8.099-5.491,11.127c-4.902,3.665-4.02,8.697,1.153,12.122
			c3.125,2.063,6.514,2.305,10.019,1.611c1.611-0.32,3.145-1.037,4.719-1.577c0.106,0.308,0.216,0.616,0.322,0.925
			c-4.542,2.442-8.899,5.067-12.022,9.333c-3.16,4.313-2.197,7.383,2.951,8.615c0.868,0.209,1.78,0.414,2.656,0.366
			c2.849-0.157,3.488,0.523,2.198,3.419c-4.014,9.048-7.22,18.377-8.086,28.342c-0.122,1.441-0.402,3.361,1.567,3.505
			c2.007,0.144,1.438-1.903,1.565-3.073c1.076-9.822,4.352-18.973,8.215-27.97c0.664-1.554,1.235-1.591,2.354-0.476
			c1.026,1.02,2.118,2.009,3.316,2.813c4.585,3.083,9.349,1.509,11.245-3.728c1.013-2.812,1.013-5.722,0.328-8.627
			c-0.232-0.979-0.485-1.962-0.688-2.95c-0.206-0.979-0.37-1.966-0.548-2.95c2.796,4.812,5.681,9.328,10.212,12.538
			c5.116,3.621,8.562,2.32,8.631-3.884c0.051-4.601,1.543-7.366,5.171-10.159C109.885,45.709,109.03,40.752,103.345,37.342z
			 M81.601,42.476c-1.417,2.281-4.418,2.982-6.701,1.562c-2.278-1.418-2.977-4.421-1.561-6.702c1.424-2.281,4.425-2.982,6.704-1.561
			C82.327,37.199,83.028,40.198,81.601,42.476z"/>
		<path d="M48.969,62.952c0.113,0.007,0.233-0.021,0.344-0.027c-0.074-0.157-0.193-0.294-0.252-0.458
			c-0.925-2.516-0.246-5.349,2.014-8.429c0.544-0.748,1.126-1.438,1.725-2.096c-2.909-3.088-6.494-5.286-10.242-7.307
			c0.104-0.31,0.212-0.618,0.322-0.925c0.689,0.237,1.384,0.511,2.074,0.771c-1.181-1.645-1.846-3.431-1.903-5.289
			c-0.087-3.076,1.5-5.996,4.476-8.217c3.073-2.299,4.187-4.58,4.257-8.716c0.034-2.04,0.441-3.532,1.016-4.675
			c-0.946-2.532-3.293-2.849-6.704-0.987c-5.137,2.81-8.336,7.376-11.417,12.387c0.288-1.301,0.525-2.622,0.857-3.917
			c0.622-2.414,0.888-4.861,0.512-7.335c-0.521-3.438-2.12-6.206-5.521-7.443c-3.297-1.188-5.898,0.554-8.215,2.594
			c-3.718,3.277-6.086,4.545-11.098,5.561c-6.097,1.241-7.229,4.654-3.16,9.517c1.588,1.903,3.293,3.698,5.373,5.046
			c1.973,1.28,4.064,2.366,5.946,4.363c-1.508-0.479-2.982-1.076-4.518-1.405c-3.498-0.743-6.878-0.541-10.071,1.377
			c-5.684,3.414-6.535,8.372-1.297,12.409c3.627,2.796,5.125,5.558,5.172,10.159c0.067,6.204,3.515,7.512,8.631,3.885
			c4.533-3.211,7.416-7.728,10.208-12.541c-0.178,0.985-0.338,1.973-0.545,2.952c-0.207,0.987-0.452,1.971-0.685,2.95
			c-0.687,2.905-0.689,5.814,0.327,8.628c1.893,5.235,6.661,6.81,11.242,3.727c1.201-0.805,2.295-1.794,3.321-2.813
			c1.119-1.115,1.686-1.081,2.353,0.473c3.238,7.535,6.044,15.188,7.505,23.246c0.435-2.478,0.996-4.985,1.715-7.566
			c-1.494-5.64-3.575-11.111-5.955-16.478C45.483,63.479,46.124,62.794,48.969,62.952z M33.229,44.043
			c-2.277,1.415-5.286,0.717-6.701-1.564c-1.418-2.277-0.722-5.28,1.559-6.701c2.279-1.418,5.282-0.72,6.701,1.561
			C36.208,39.62,35.509,42.619,33.229,44.043z"/>
	</g>
</g>
</svg>